<?xml version="1.0" encoding="utf-8"?>
<!-- Generator: Adobe Illustrator 25.2.3, SVG Export Plug-In . SVG Version: 6.00 Build 0)  -->
<svg version="1.1" id="Layer_1" xmlns="http://www.w3.org/2000/svg" xmlns:xlink="http://www.w3.org/1999/xlink" x="0px" y="0px"
	 viewBox="0 0 400 144" style="enable-background:new 0 0 400 144;" xml:space="preserve">
<g>
	<g>
		<path d="M147.5,123.3h-4.8v6.9h-2.2v-19.6h7.3c4.4,0,7.3,2.4,7.3,6.3C155.3,121.1,151.7,123.3,147.5,123.3z M147.7,112.7h-5v8.6
			h4.9c3.3,0,5.4-1.7,5.4-4.3C153,114.1,150.9,112.7,147.7,112.7z"/>
		<path d="M178.2,130.3l-5.7-7.6h-5.6v7.6h-2.2v-19.6h8.4c4.3,0,7.1,2.3,7.1,5.9c0,3.3-2.2,5.2-5.3,5.7l6,8H178.2z M173,112.7h-6.1
			v8h6c2.9,0,5-1.5,5-4.1C178,114.1,176.1,112.7,173,112.7z"/>
		<path d="M199.3,130.6c-6,0-10-4.7-10-10.1s4.1-10.2,10-10.2s10,4.7,10,10.1C209.3,125.8,205.3,130.6,199.3,130.6z M199.3,112.3
			c-4.5,0-7.7,3.6-7.7,8.1s3.3,8.1,7.7,8.1s7.7-3.6,7.7-8.1S203.8,112.3,199.3,112.3z"/>
		<path d="M226.6,123.3h-4.8v6.9h-2.2v-19.6h7.3c4.4,0,7.3,2.4,7.3,6.3C234.3,121.1,230.8,123.3,226.6,123.3z M226.8,112.7h-5v8.6
			h4.9c3.3,0,5.4-1.7,5.4-4.3C232.1,114.1,230,112.7,226.8,112.7z"/>
		<path d="M257.9,112.6h-12v6.7h10.7v2h-10.7v6.9H258v2h-14.3v-19.6h14.2V112.6z"/>
		<path d="M281.3,130.3l-5.7-7.6H270v7.6h-2.2v-19.6h8.4c4.3,0,7.1,2.3,7.1,5.9c0,3.3-2.2,5.2-5.3,5.7l6,8H281.3z M276,112.7h-6v8h6
			c2.9,0,5-1.5,5-4.1C281.1,114.1,279.2,112.7,276,112.7z"/>
		<path d="M300.5,130.3h-2.2v-17.6h-6.6v-2h15.4v2h-6.6L300.5,130.3L300.5,130.3z"/>
		<path d="M318.8,110.6v19.6h-2.2v-19.6H318.8z"/>
		<path d="M344.3,112.6h-12v6.7H343v2h-10.7v6.9h12.1v2h-14.3v-19.6h14.2L344.3,112.6L344.3,112.6z"/>
		<path d="M361.5,119.4c4.4,1,6.4,2.6,6.4,5.6c0,3.4-2.8,5.6-6.7,5.6c-3.1,0-5.7-1-8-3.1l1.4-1.6c2,1.9,4,2.8,6.7,2.8
			c2.6,0,4.4-1.4,4.4-3.4c0-1.9-1-2.9-5.1-3.8c-4.5-1-6.6-2.4-6.6-5.7c0-3.1,2.7-5.4,6.5-5.4c2.9,0,4.9,0.8,6.9,2.4l-1.3,1.7
			c-1.8-1.5-3.6-2.1-5.7-2.1c-2.6,0-4.2,1.4-4.2,3.2C356.2,117.4,357.2,118.4,361.5,119.4z"/>
	</g>
</g>
<g>
	<path d="M44.9,36.3L24,92H0.8L34.4,9.2h21L88.9,92H65.7L44.9,36.3z"/>
	<path d="M138,9.2c21.2,0,31,13.8,31,30.3c0,11.6-5.2,22.4-16.4,27.5l18,25.1h-25.4l-15.7-22.2h-10.8V92H97.5V9.2H138z M118.7,28.5
		v22.1h18.2c8.5,0,11.7-5.2,11.7-10.9c0-6.4-3.2-11.2-11.7-11.2C136.9,28.5,118.7,28.5,118.7,28.5z"/>
	<g>
		<g>
			<path d="M302.5,9.2H254c4.7,4.7,8.1,10.7,10,17.8h38.5V9.2z"/>
		</g>
		<path d="M237.5,66.9c11.2-5.1,16.4-15.9,16.4-27.5c0-3.1-0.4-6.2-1.1-9c-3.1-12.2-12.7-21.2-29.9-21.2h-10.5h-30V92h21.1V69.8
			h10.8L230.1,92h25.4L237.5,66.9z M221.7,50.6h-18.2V28.5h8.8h9.3c3.2,0,5.7,0.7,7.5,1.9c2.9,2,4.2,5.3,4.2,9.2
			C233.4,45.4,230.2,50.6,221.7,50.6z"/>
		<rect x="281.2" y="36.1" width="21.2" height="55.9"/>
	</g>
	<path d="M343.9,92L310.4,9.2h23.2l20.8,55.7l20.9-55.7h23.2L364.9,92H343.9z"/>
</g>
</svg>
