<?xml version="1.0" encoding="utf-8"?>
<!-- Generator: Adobe Illustrator 25.2.3, SVG Export Plug-In . SVG Version: 6.00 Build 0)  -->
<svg version="1.1" id="Layer_1" xmlns="http://www.w3.org/2000/svg" xmlns:xlink="http://www.w3.org/1999/xlink" x="0px" y="0px"
	 viewBox="0 0 400 144" style="enable-background:new 0 0 400 144;" xml:space="preserve">
<g>
	<g>
		<path d="M43.6,28.3h-4.8v6.9h-2.2V15.6H44c4.4,0,7.3,2.4,7.3,6.3C51.3,26.1,47.8,28.3,43.6,28.3z M43.8,17.6h-5v8.6h4.9
			c3.3,0,5.4-1.7,5.4-4.3C49.1,19.1,47,17.6,43.8,17.6z"/>
		<path d="M74.3,35.2l-5.7-7.6H63v7.6h-2.2V15.6h8.4c4.3,0,7.1,2.3,7.1,5.9c0,3.3-2.2,5.2-5.3,5.7l6,8H74.3z M69,17.6h-6v8h6
			c2.9,0,5-1.5,5-4.1C74,19.1,72.2,17.6,69,17.6z"/>
		<path d="M95.3,35.6c-6,0-10-4.7-10-10.1s4.1-10.2,10-10.2c6,0,10,4.7,10,10.1C105.4,30.8,101.3,35.6,95.3,35.6z M95.3,17.3
			c-4.5,0-7.7,3.6-7.7,8.1s3.3,8.1,7.7,8.1s7.7-3.6,7.7-8.1S99.8,17.3,95.3,17.3z"/>
		<path d="M122.7,28.3h-4.8v6.9h-2.2V15.6h7.3c4.4,0,7.3,2.4,7.3,6.3C130.4,26.1,126.8,28.3,122.7,28.3z M122.9,17.6h-5v8.6h4.9
			c3.3,0,5.4-1.7,5.4-4.3C128.1,19.1,126,17.6,122.9,17.6z"/>
		<path d="M153.3,35.2l-5.7-7.6H142v7.6h-2.2V15.6h8.4c4.3,0,7.1,2.3,7.1,5.9c0,3.3-2.2,5.2-5.3,5.7l6,8H153.3z M148.1,17.6H142v8h6
			c2.9,0,5-1.5,5-4.1C153.1,19.1,151.2,17.6,148.1,17.6z"/>
		<path d="M168,15.6v19.6h-2.2V15.6H168z"/>
		<path d="M193.5,17.6h-12v6.7h10.7v2h-10.7v6.9h12.1v2h-14.3V15.6h14.2V17.6z M184.9,13.9l2.7-4.1l2.2,1l-3.2,3h-1.7V13.9z"/>
		<path d="M211.3,35.2H209V17.6h-6.6v-2h15.4v2h-6.6v17.6H211.3z"/>
		<path d="M241.5,17.6h-12v6.7h10.7v2h-10.7v6.9h12.1v2h-14.3V15.6h14.2V17.6z M232.8,13.9l2.7-4.1l2.2,1l-3.2,3h-1.7V13.9z"/>
		<path d="M258.7,24.3c4.4,1,6.4,2.6,6.4,5.6c0,3.4-2.8,5.6-6.7,5.6c-3.1,0-5.7-1-8-3.1l1.4-1.6c2,1.9,4,2.8,6.7,2.8
			c2.6,0,4.4-1.4,4.4-3.4c0-1.9-1-2.9-5.1-3.8c-4.5-1-6.6-2.4-6.6-5.7c0-3.1,2.7-5.4,6.5-5.4c2.9,0,4.9,0.8,6.9,2.4l-1.3,1.7
			c-1.8-1.5-3.6-2.1-5.7-2.1c-2.6,0-4.2,1.4-4.2,3.2C253.3,22.4,254.3,23.4,258.7,24.3z"/>
	</g>
</g>
<g>
	<g>
		<path d="M138.3,51.3c21.2,0,31,13.8,31,30.3c0,11.6-5.2,22.4-16.4,27.5l18,25.1h-25.4L129.8,112H119v22.2H97.8V51.3H138.3z
			 M119,70.7v22.1h18.2c8.5,0,11.7-5.2,11.7-10.9c0-6.4-3.2-11.2-11.7-11.2H119z"/>
		<g>
			<g>
				<path d="M302.8,51.3h-48.5c4.7,4.7,8.1,10.7,10,17.8h38.5V51.3z"/>
			</g>
			<path d="M237.9,109.1c11.2-5.1,16.4-15.9,16.4-27.5c0-3.1-0.4-6.2-1.1-9c-3.1-12.2-12.7-21.2-29.9-21.2h-10.5h-30v82.9h21.1V112
				h10.8l15.7,22.2h25.4L237.9,109.1z M222,92.8h-18.2V70.7h8.9h9.3c3.2,0,5.7,0.7,7.5,1.9c2.9,2,4.2,5.3,4.2,9.2
				C233.7,87.6,230.5,92.8,222,92.8z"/>
			<rect x="281.5" y="78.3" width="21.2" height="56"/>
		</g>
		<path d="M344.2,134.2l-33.5-82.9h23.2l20.8,55.7l20.9-55.7h23.2l-33.6,82.9H344.2z"/>
	</g>
	<path d="M45.2,78.5l-20.9,55.7H1.1l33.6-82.9h21l33.5,82.9H66L45.2,78.5z"/>
</g>
</svg>
