<?xml version="1.0" encoding="utf-8"?>
<!-- Generator: Adobe Illustrator 25.2.3, SVG Export Plug-In . SVG Version: 6.00 Build 0)  -->
<svg version="1.1" id="Layer_1" xmlns="http://www.w3.org/2000/svg" xmlns:xlink="http://www.w3.org/1999/xlink" x="0px" y="0px"
	 viewBox="0 0 430 160" style="enable-background:new 0 0 430 160;" xml:space="preserve">
<style type="text/css">
	.st0{fill:#FF00FF;}
	.st1{fill:#FFFFFF;}
</style>
<g>
	<rect class="st0" width="430" height="160"/>
</g>
<g>
	<path class="st1" d="M78.2,97.6l16.5-42.9h6.1l17.6,42.9H112l-5-13H89l-4.7,13H78.2z M90.6,80h14.6l-4.5-11.9
		c-1.4-3.6-2.4-6.6-3-8.9c-0.5,2.8-1.3,5.5-2.3,8.2L90.6,80z"/>
	<path class="st1" d="M122.2,97.6V66.5h4.7v4.7c1.2-2.2,2.3-3.7,3.4-4.4s2.2-1.1,3.4-1.1c1.8,0,3.6,0.6,5.4,1.7l-1.8,4.9
		c-1.3-0.8-2.6-1.1-3.9-1.1c-1.2,0-2.2,0.3-3.1,1c-0.9,0.7-1.6,1.7-2,2.9c-0.6,1.9-0.9,3.9-0.9,6.2v16.3H122.2z"/>
	<path class="st1" d="M142.2,97.6V66.5h4.7v4.7c1.2-2.2,2.3-3.7,3.4-4.4s2.2-1.1,3.4-1.1c1.8,0,3.6,0.6,5.4,1.7l-1.8,4.9
		c-1.3-0.8-2.6-1.1-3.9-1.1c-1.2,0-2.2,0.3-3.1,1c-0.9,0.7-1.6,1.7-2,2.9c-0.6,1.9-0.9,3.9-0.9,6.2v16.3H142.2z"/>
	<path class="st1" d="M162.3,60.7v-6.1h5.3v6.1H162.3z M162.3,97.6V66.5h5.3v31.1H162.3z"/>
	<path class="st1" d="M184.2,97.6l-11.8-31.1h5.6l6.7,18.6c0.7,2,1.4,4.1,2,6.3c0.5-1.6,1.1-3.6,2-5.9l6.9-19h5.4l-11.8,31.1H184.2z
		"/>
	<path class="st1" d="M222.7,97.6V54.7h5.7v37.9h21.2v5.1H222.7z"/>
	<path class="st1" d="M253.7,82.1c0-5.8,1.6-10,4.8-12.8c2.7-2.3,5.9-3.5,9.8-3.5c4.3,0,7.8,1.4,10.5,4.2c2.7,2.8,4.1,6.7,4.1,11.6
		c0,4-0.6,7.2-1.8,9.4c-1.2,2.3-2.9,4.1-5.2,5.3s-4.8,1.9-7.5,1.9c-4.4,0-7.9-1.4-10.6-4.2C255,91.3,253.7,87.3,253.7,82.1z
		 M259.1,82.1c0,4,0.9,7,2.6,9c1.7,2,3.9,3,6.6,3c2.6,0,4.8-1,6.5-3s2.6-5,2.6-9.1c0-3.8-0.9-6.8-2.6-8.7c-1.7-2-3.9-3-6.5-3
		c-2.6,0-4.8,1-6.6,3C259.9,75.1,259.1,78.1,259.1,82.1z"/>
	<path class="st1" d="M288,100.2l5.1,0.8c0.2,1.6,0.8,2.7,1.8,3.5c1.3,1,3.1,1.5,5.4,1.5c2.4,0,4.3-0.5,5.7-1.5
		c1.3-1,2.2-2.3,2.7-4.1c0.3-1.1,0.4-3.3,0.4-6.8c-2.3,2.7-5.2,4.1-8.6,4.1c-4.3,0-7.6-1.5-9.9-4.6c-2.3-3.1-3.5-6.8-3.5-11.1
		c0-3,0.5-5.7,1.6-8.2c1.1-2.5,2.6-4.4,4.7-5.8c2-1.4,4.4-2.1,7.2-2.1c3.7,0,6.7,1.5,9.1,4.5v-3.8h4.9v26.9c0,4.8-0.5,8.3-1.5,10.3
		s-2.5,3.6-4.7,4.8s-4.8,1.8-7.9,1.8c-3.7,0-6.7-0.8-9-2.5S287.9,103.5,288,100.2z M292.4,81.5c0,4.1,0.8,7.1,2.4,8.9
		s3.7,2.8,6.1,2.8c2.4,0,4.5-0.9,6.1-2.8c1.6-1.9,2.5-4.8,2.5-8.8c0-3.8-0.8-6.7-2.5-8.6s-3.7-2.9-6.1-2.9c-2.3,0-4.3,1-6,2.9
		S292.4,77.7,292.4,81.5z"/>
	<path class="st1" d="M320.4,82.1c0-5.8,1.6-10,4.8-12.8c2.7-2.3,5.9-3.5,9.8-3.5c4.3,0,7.8,1.4,10.5,4.2c2.7,2.8,4.1,6.7,4.1,11.6
		c0,4-0.6,7.2-1.8,9.4c-1.2,2.3-2.9,4.1-5.2,5.3s-4.8,1.9-7.5,1.9c-4.4,0-7.9-1.4-10.6-4.2C321.7,91.3,320.4,87.3,320.4,82.1z
		 M325.8,82.1c0,4,0.9,7,2.6,9c1.7,2,3.9,3,6.6,3c2.6,0,4.8-1,6.5-3s2.6-5,2.6-9.1c0-3.8-0.9-6.8-2.6-8.7c-1.7-2-3.9-3-6.5-3
		c-2.6,0-4.8,1-6.6,3C326.7,75.1,325.8,78.1,325.8,82.1z"/>
</g>
</svg>
