<?xml version="1.0" encoding="utf-8"?>
<!-- Generator: Adobe Illustrator 25.2.3, SVG Export Plug-In . SVG Version: 6.00 Build 0)  -->
<svg version="1.1" id="Layer_1" xmlns="http://www.w3.org/2000/svg" xmlns:xlink="http://www.w3.org/1999/xlink" x="0px" y="0px"
	 viewBox="0 0 219.1 140" style="enable-background:new 0 0 219.1 140;" xml:space="preserve">
<style type="text/css">
	.st0{fill:#434444;}
</style>
<g id="Group_207" transform="translate(2.674 -160.575)">
	<path id="Path_288" class="st0" d="M-2.7,258.8c0,23.1,18.7,41.8,41.8,41.8c19.9,0,37-14,40.9-33.5h5.5c1.1,1.7,2.6,3.2,4.3,4.3
		l-2.9,6.4h-3.6c-1.1,0-2,0.8-2,1.9c0,1.1,0.8,2,1.9,2c0,0,0.1,0,0.1,0h4.6c0.1,0,0.2,0,0.2,0c0.1,0,0.1,0,0.2,0h4.8
		c1.1,0,2-0.8,2-1.9c0-1.1-0.8-2-1.9-2c0,0-0.1,0-0.1,0h-2l2.1-4.7c7.7,2.5,15.9-1.8,18.3-9.5c0.7-2.2,0.9-4.6,0.5-6.9l36.7-33.2
		c0.2,0.8,0.5,1.5,0.7,2.3c-18.2,14-21.5,40.1-7.5,58.3c14,18.2,40.1,21.5,58.3,7.5c18.2-14,21.5-40.1,7.5-58.3
		c-11.6-15-31.8-20.3-49.2-12.8c-4.7-16-9.4-31.9-9.7-33.3c-0.1-0.4-0.2-0.9-0.4-1.4c-0.1-0.5-0.5-1.6-0.7-2.7
		c0-0.5,0.3-0.9,0.8-0.9c2.9,0.1,5.8-0.4,8.5-1.4c6.1-2.3,6.8-7,6.8-8.9c0-2.6-1.2-11.2-16.1-11.2H123c-2.8,0-5.1,2.3-5.1,5.1
		c0,2.7,2.1,4.9,4.8,5.1H152c0.4,0,0.7,0.3,0.6,0.7c0,0.3-0.3,0.6-0.6,0.6H145c-2.6,0.1-4.9,1.5-6.4,3.6c-2.8,4.2-0.9,9.7,0,12.7
		c0.1,0.4,0.2,0.7,0.2,0.9c0.1,0.3,0.2,0.9,0.5,1.8l-61.1,0c-1,0-1.9,0.1-2.8,0.3l-2.9-7h16c2.8,0,5.1-2.3,5.1-5.1
		c0-2.8-2.3-5.1-5.1-5.1h-31c-2.8,0-5.1,2.3-5.1,5.1c0,2.8,2.3,5.1,5.1,5.1c0,0,0,0,0,0h4l4.7,11.4c-1.6,1.3-3,2.9-4.1,4.8L51.8,219
		c-22-7-45.5,5.1-52.5,27C-2,250.2-2.7,254.5-2.7,258.8L-2.7,258.8z M152.6,236.5c0.6,2.1,1.1,3.8,1.5,4.9
		c0.5,1.7,4.9,16.8,19.7,22.6c2.6,1,5.6-0.2,6.6-2.8c1-2.6-0.2-5.6-2.8-6.6c0,0-0.1,0-0.1,0c-10.6-4.1-13.5-15.6-13.6-15.7
		c0-0.1,0-0.1-0.1-0.2c-0.8-2.6-1.6-5.4-2.5-8.3c15.8-7.5,34.7-0.7,42.1,15.1c7.5,15.8,0.7,34.7-15.1,42.1s-34.7,0.7-42.1-15.1
		C140.6,260.3,143.1,245.9,152.6,236.5L152.6,236.5z M92.2,259.3c0-3,2.4-5.4,5.4-5.4c3,0,5.4,2.4,5.4,5.4c0,3-2.4,5.4-5.4,5.4
		c0,0,0,0,0,0C94.6,264.7,92.2,262.2,92.2,259.3z M79.6,201.4l62.7,0c1,3.4,2.1,7.2,3.3,11.2l-38.7,35.1c-0.5-0.4-1-0.8-1.6-1.1
		l3-6.7h3.5c1.1,0,1.9-0.9,1.9-2c0-1-0.9-1.9-1.9-1.9h-9.9c-1.1,0-1.9,0.9-1.9,2c0,1,0.9,1.9,1.9,1.9h2.1l-2.3,5.2
		c-1.3-0.4-2.6-0.5-3.9-0.5c-0.1,0-0.1,0-0.2,0L79.6,201.4z M61.1,223.3l9.5-17L88,248.2c-2.5,2.3-4.2,5.3-4.7,8.7h-2.5
		C80.1,243.1,72.8,230.6,61.1,223.3z M70.6,256.9H42.3l13.8-24.6C64.6,237.7,69.9,246.8,70.6,256.9L70.6,256.9z M7.5,258.8
		c0-17.4,14.1-31.6,31.5-31.6c2.6,0,5.1,0.3,7.6,0.9L33,252.6c-1.9,3.4-2,7-0.4,9.9s4.9,4.5,8.8,4.5h28.1
		c-4.5,16.8-21.9,26.8-38.7,22.2C17.1,285.6,7.5,273.1,7.5,258.8L7.5,258.8z"/>
</g>
</svg>
