<?xml version="1.0" encoding="utf-8"?>
<!-- Generator: Adobe Illustrator 25.2.3, SVG Export Plug-In . SVG Version: 6.00 Build 0)  -->
<svg version="1.1" id="Layer_1" xmlns="http://www.w3.org/2000/svg" xmlns:xlink="http://www.w3.org/1999/xlink" x="0px" y="0px"
	 viewBox="0 0 103.3 140" style="enable-background:new 0 0 103.3 140;" xml:space="preserve">
<style type="text/css">
	.st0{fill:#434444;}
</style>
<g id="train_icon" transform="translate(-1893.631 -347.976)">
	<path id="Path_289" class="st0" d="M1978.9,461.9c-0.8,0.1-1.6,0.2-2.5,0.3h0c-0.2,0-0.4,0-0.7,0h-10l6,8.7h-53l6-8.7h-11.1
		c-0.7,0-1.5,0-2.2-0.1l-17.9,25.9h13.3l5.3-7.7h66l5.3,7.7h13.3L1978.9,461.9z"/>
	<path id="Path_290" class="st0" d="M1913.6,458.1h62.2c8,0,14.5-6.5,14.5-14.5v-66.8c0-4.4-1.2-8.7-3.5-12.4
		c-0.3-0.4-0.5-0.8-0.8-1.2c-1.4-2-3.1-3.7-5.1-5.1c-0.2-0.1-0.4-0.3-0.6-0.4s-0.4-0.3-0.6-0.4c-0.7-0.4-1.4-0.9-2.2-1.3
		c-0.3-0.1-0.5-0.3-0.8-0.4c-1.7-0.9-3.4-1.7-5.2-2.5c-17.3-6.8-36.4-6.8-53.7,0c-0.6,0.3-1.2,0.5-1.8,0.8c-1.2,0.5-2.3,1.1-3.3,1.7
		c-1,0.6-2,1.2-2.9,1.7c-6.6,4.2-10.7,11.6-10.6,19.5v68.7c0,0.3,0.1,0.6,0.3,0.9C1900.7,453.2,1906.7,458.1,1913.6,458.1z
		 M1924.1,439.5c-0.1,0.6-0.2,1.1-0.4,1.7c-0.1,0.2-0.2,0.4-0.3,0.6c-0.1,0.2-0.2,0.4-0.3,0.6c-0.2,0.4-0.5,0.7-0.8,1.1
		c-0.1,0.1-0.2,0.2-0.2,0.2c-0.1,0.1-0.2,0.2-0.3,0.3c-0.3,0.3-0.7,0.5-1,0.8c-0.2,0.1-0.4,0.2-0.6,0.3c-0.6,0.3-1.3,0.5-1.9,0.6
		c-1.4,0.2-2.8,0-4.1-0.6c-0.2-0.1-0.4-0.2-0.6-0.3c-0.3-0.2-0.6-0.4-0.8-0.6c-0.2-0.1-0.3-0.3-0.5-0.4c-0.1-0.1-0.2-0.2-0.2-0.2
		c-0.3-0.3-0.6-0.7-0.8-1.1c-0.1-0.2-0.2-0.4-0.3-0.6c-0.1-0.2-0.2-0.4-0.3-0.6c-0.1-0.3-0.2-0.7-0.3-1c0-0.2-0.1-0.5-0.1-0.7
		c0-0.2,0-0.5,0-0.7c0-0.7,0.1-1.4,0.3-2.1c0.1-0.2,0.1-0.4,0.2-0.6c0.1-0.2,0.2-0.4,0.3-0.6c0.1-0.2,0.2-0.4,0.3-0.6
		c0.2-0.3,0.4-0.5,0.6-0.8c0.1-0.2,0.3-0.3,0.5-0.5c0.2-0.2,0.5-0.4,0.8-0.6c0.4-0.3,0.8-0.5,1.2-0.6c0.2-0.1,0.4-0.2,0.6-0.2
		c1.4-0.4,2.8-0.4,4.2,0c0.2,0.1,0.3,0.1,0.5,0.2c0.5,0.2,1,0.5,1.5,0.8c0.1,0.1,0.3,0.2,0.4,0.3c0.1,0.1,0.2,0.2,0.3,0.3
		c0.1,0.1,0.2,0.2,0.4,0.4c0.2,0.2,0.4,0.5,0.6,0.8c0.1,0.2,0.2,0.4,0.3,0.6c0.1,0.1,0.1,0.3,0.2,0.4s0.1,0.3,0.2,0.4
		c0.1,0.1,0.1,0.3,0.1,0.4C1924.1,437.6,1924.2,438.6,1924.1,439.5L1924.1,439.5z M1975.2,445.1c-0.6,0.3-1.3,0.5-1.9,0.6
		c-0.7,0.1-1.4,0.1-2.1,0c-0.7-0.1-1.3-0.3-1.9-0.6c-0.2-0.1-0.4-0.2-0.6-0.3c-0.4-0.2-0.7-0.5-1-0.8l0,0c-0.2-0.1-0.3-0.3-0.5-0.5
		c-0.3-0.3-0.6-0.7-0.8-1.1c-0.1-0.2-0.2-0.4-0.3-0.6c-0.1-0.2-0.2-0.4-0.3-0.6c-0.2-0.5-0.3-1.1-0.4-1.7c0-0.2,0-0.5,0-0.7
		c0-0.7,0.1-1.4,0.3-2.1c0-0.1,0.1-0.3,0.1-0.4c0.1-0.1,0.1-0.3,0.2-0.4c0.1-0.1,0.1-0.3,0.2-0.4c0.1-0.2,0.2-0.4,0.3-0.6
		c0.2-0.3,0.4-0.5,0.6-0.8c0.1-0.1,0.2-0.2,0.2-0.2l0,0c0.1-0.1,0.3-0.3,0.4-0.4c0.1-0.1,0.2-0.2,0.4-0.3c0.5-0.3,0.9-0.6,1.5-0.8
		c0.2-0.1,0.3-0.1,0.5-0.2c0.4-0.1,0.7-0.2,1.1-0.3c0.7-0.1,1.4-0.1,2.1,0c0.4,0.1,0.7,0.1,1.1,0.3c0.2,0.1,0.3,0.1,0.5,0.2
		c0.5,0.2,1,0.5,1.5,0.8c0.1,0.1,0.3,0.2,0.4,0.3c0.1,0.1,0.2,0.2,0.3,0.3c0.1,0.1,0.2,0.2,0.4,0.4c0.2,0.2,0.4,0.5,0.6,0.8
		c0.1,0.2,0.2,0.4,0.3,0.6c0.1,0.1,0.1,0.3,0.2,0.4c0.1,0.1,0.1,0.3,0.2,0.4s0.1,0.3,0.1,0.4c0.2,0.7,0.3,1.4,0.3,2.1
		c0,0.2,0,0.5,0,0.7c0,0.2-0.1,0.5-0.1,0.7c-0.1,0.3-0.2,0.7-0.3,1c-0.1,0.2-0.2,0.4-0.3,0.6c-0.1,0.2-0.2,0.4-0.3,0.6
		c-0.2,0.4-0.5,0.7-0.8,1.1c-0.1,0.1-0.2,0.2-0.2,0.2c-0.1,0.1-0.2,0.2-0.3,0.3c-0.3,0.3-0.7,0.5-1,0.8
		C1975.6,444.9,1975.4,445,1975.2,445.1L1975.2,445.1z M1928.3,362.7c0-1.5,1.2-2.7,2.7-2.7h28.7c1.5,0,2.7,1.2,2.7,2.7v2
		c0,1.5-1.2,2.7-2.7,2.7h-28.7c-1.5,0-2.7-1.2-2.7-2.7V362.7z M1906.3,378.8c0-3.8,3-6.8,6.8-6.8c0,0,0,0,0,0h64.1
		c3.8,0,6.8,3.1,6.8,6.8c0,0,0,0,0,0v38.5c0,3.8-3,6.8-6.8,6.8c0,0,0,0,0,0h-64.1c-3.8,0-6.8-3.1-6.8-6.8c0,0,0,0,0,0V378.8z"/>
</g>
</svg>
