<?xml version="1.0" encoding="utf-8"?>
<!-- Generator: Adobe Illustrator 25.2.3, SVG Export Plug-In . SVG Version: 6.00 Build 0)  -->
<svg version="1.1" id="Layer_1" xmlns="http://www.w3.org/2000/svg" xmlns:xlink="http://www.w3.org/1999/xlink" x="0px" y="0px"
	 viewBox="0 0 74.5 140" style="enable-background:new 0 0 74.5 140;" xml:space="preserve">
<style type="text/css">
	.st0{fill-rule:evenodd;clip-rule:evenodd;fill:#434444;}
</style>
<g id="Group_204" transform="translate(-255.341 -342.764)">
	<path id="Path_287" class="st0" d="M306.2,391.8l21,16.1c3,2.3,3.5,6.6,1.2,9.6c-2.3,2.9-6.5,3.5-9.5,1.3l-14.8-11.4L306.2,391.8z
		 M298.5,342.8c7.3,0,13.2,5.9,13.2,13.2c0,7.3-5.9,13.2-13.2,13.2s-13.2-5.9-13.2-13.2C285.3,348.7,291.2,342.8,298.5,342.8z
		 M298.8,419.3c-0.4,2.9,0.2,4.3,2.4,6.2l10.6,9.1c2.4,2.1,3.9,5.1,4.2,8.4l2.3,30.9c0.3,4.5-3.1,8.5-7.6,8.8
		c-4.5,0.3-8.5-3.1-8.8-7.6l0,0l-2.2-29.1l-17.2-14.8c-5.2-4.5-6.6-9.1-5.6-16.2l3-21.5l-4.4,2.3l-6.7,21.8
		c-1.1,3.6-4.9,5.7-8.5,4.6c-3.6-1.1-5.7-4.9-4.6-8.5c0,0,0-0.1,0-0.1l6.9-22.4c1-3.1,3.1-5.7,6-7.2l13.4-7.1
		c3.2-1.7,6.5-3.8,10.2-4.1c6.8-0.5,12.4,5.9,11.5,12.6L298.8,419.3z M268.7,482.4c4.3,1.4,9-1,10.4-5.3l11.1-34.5l-10.1-8.6
		c-1.2-1-2.4-2.2-3.3-3.4L263.4,472C262.1,476.3,264.4,481,268.7,482.4L268.7,482.4z"/>
</g>
</svg>
