<?xml version="1.0" encoding="utf-8"?>
<!-- Generator: Adobe Illustrator 25.2.3, SVG Export Plug-In . SVG Version: 6.00 Build 0)  -->
<svg version="1.1" id="Layer_1" xmlns="http://www.w3.org/2000/svg" xmlns:xlink="http://www.w3.org/1999/xlink" x="0px" y="0px"
	 viewBox="0 0 50 50" style="enable-background:new 0 0 50 50;" xml:space="preserve">
<style type="text/css">
	.st0{fill:#FFFFFF;}
</style>
<path id="Path_1" class="st0" d="M42.1,50H7.9C3.6,50,0,46.5,0,42.1c0,0,0,0,0,0V7.9C0,3.6,3.5,0,7.9,0c0,0,0,0,0,0h34.1
	C46.4,0,50,3.5,50,7.9c0,0,0,0,0,0v34.1C50,46.4,46.5,50,42.1,50C42.1,50,42.1,50,42.1,50z M45.7,40.2V9.8c0-3-2.4-5.4-5.4-5.4H9.8
	c-3,0-5.4,2.4-5.4,5.4v30.4c0,3,2.4,5.4,5.4,5.4h30.4C43.2,45.6,45.6,43.2,45.7,40.2L45.7,40.2z"/>
<g id="Group_8" transform="translate(12.56 12.56)">
	<path id="Path_2" class="st0" d="M12.4,25.3c-7.1,0-12.9-5.8-12.9-12.9S5.3-0.5,12.4-0.5s12.9,5.8,12.9,12.9c0,0,0,0,0,0
		C25.3,19.6,19.6,25.3,12.4,25.3z M12.4,3.9c-4.7,0-8.6,3.8-8.6,8.6S7.7,21,12.4,21s8.6-3.8,8.6-8.6C21,7.7,17.2,3.9,12.4,3.9
		L12.4,3.9z"/>
</g>
<ellipse id="Ellipse_9" class="st0" cx="38.5" cy="11.6" rx="3.3" ry="3.3"/>
</svg>
