<?xml version="1.0" encoding="utf-8"?>
<!-- Generator: Adobe Illustrator 25.2.3, SVG Export Plug-In . SVG Version: 6.00 Build 0)  -->
<svg version="1.1" id="Layer_1" xmlns="http://www.w3.org/2000/svg" xmlns:xlink="http://www.w3.org/1999/xlink" x="0px" y="0px"
	 viewBox="0 0 50 50" style="enable-background:new 0 0 50 50;" xml:space="preserve">
<style type="text/css">
	.st0{fill:#FFFFFF;}
</style>
<path id="logo-twitter" class="st0" d="M15.7,45.4c18.9,0,29.2-15.7,29.2-29.3c0-0.4,0-0.9,0-1.3c2-1.5,3.7-3.3,5.1-5.3
	c-1.9,0.8-3.9,1.4-5.9,1.6c2.1-1.3,3.7-3.3,4.5-5.7c-2,1.2-4.2,2-6.5,2.5c-3.9-4.1-10.4-4.4-14.5-0.5c-2.1,2-3.3,4.7-3.3,7.6
	c0,0.8,0.1,1.6,0.3,2.4C16.4,16.8,8.7,12.9,3.5,6.5c-2.7,4.7-1.3,10.7,3.2,13.8c-1.6,0-3.2-0.5-4.6-1.3c0,0,0,0.1,0,0.1
	c0,4.9,3.4,9.1,8.2,10.1c-0.9,0.2-1.8,0.4-2.7,0.4c-0.6,0-1.3-0.1-1.9-0.2c1.3,4.2,5.2,7.1,9.6,7.2c-3.6,2.9-8.1,4.4-12.7,4.4
	c-0.8,0-1.6-0.1-2.4-0.1C4.7,43.8,10.1,45.4,15.7,45.4"/>
</svg>
