<?xml version="1.0" encoding="utf-8"?>
<!-- Generator: Adobe Illustrator 24.2.3, SVG Export Plug-In . SVG Version: 6.00 Build 0)  -->
<svg version="1.1" id="Layer_1" xmlns="http://www.w3.org/2000/svg" xmlns:xlink="http://www.w3.org/1999/xlink" x="0px" y="0px"
	 viewBox="0 0 180 79" style="enable-background:new 0 0 180 79;" xml:space="preserve">
<style type="text/css">
	.st0{fill:#FFFFFF;}
</style>
<g>
	<polyline class="st0" points="0,75.21 0,50.65 89.95,0 180,50.65 180,75.21 89.95,25.49 0,75.21 	"/>
	<path class="st0" d="M88,61.17c-0.64,0.02-1.2-0.68-1.74-0.85c0.45,1.77,1.34,5.6,1.01,5.8c-0.34,0.22-2.04-2.02-2.97-2.8
		c-0.31,0.6-0.05,1.62-0.72,1.89c-0.53,0.2-1.61-0.26-2.4-0.22c0.2,0.78,1.12,1.74,0.97,2.34c-0.15,0.61-1.19,0.74-1.58,1.32
		c1.31,1.14,5.13,3.8,5.13,4.54c0,0.56-0.53,1.52-0.71,2.18c1.43-0.19,3.64-0.61,4.58-0.67c0,1.24,0,3.58,0,3.58h0.76
		c0,0,0-2.34,0-3.58c0.94,0.06,3.14,0.48,4.58,0.67c-0.19-0.66-0.72-1.62-0.72-2.18c0-0.74,3.83-3.4,5.14-4.54
		c-0.39-0.58-1.43-0.71-1.58-1.32c-0.15-0.6,0.77-1.56,0.97-2.34c-0.79-0.04-1.87,0.42-2.4,0.22c-0.68-0.27-0.41-1.29-0.72-1.89
		c-0.93,0.77-2.63,3.02-2.97,2.8c-0.33-0.21,0.56-4.03,1.02-5.8c-0.55,0.17-1.1,0.87-1.74,0.85c-0.75-0.02-0.9-1.43-1.95-3.41
		C88.89,59.76,88.74,61.15,88,61.17"/>
	<path class="st0" d="M27.33,73.94c-1.49-1.37-1.91-3.13-1.91-4.7c0-1.28,0.41-2.85,1.78-4.25c1.01-1.02,2.68-1.74,4.96-1.74
		c0.6,0,1.41,0.09,1.92,0.19c0.57,0.12,1.05,0.2,1.54,0.23c0.16,0.02,0.2,0.08,0.2,0.17c0,0.13-0.05,0.35-0.08,0.91
		c-0.03,0.51-0.03,1.08-0.05,1.31c-0.02,0.23-0.05,0.33-0.14,0.33c-0.11,0-0.12-0.11-0.12-0.33c0-0.61-0.24-0.95-0.63-1.3
		c-0.53-0.47-1.43-0.89-2.74-0.89c-2,0-2.89,0.65-3.42,1.19c-1.1,1.1-1.44,2.48-1.44,4.08c0,2.93,1.67,5.75,5.43,5.75
		c1.13,0,1.81-0.19,2.41-0.83c0.32-0.35,0.51-0.84,0.56-1.11c0.03-0.17,0.06-0.24,0.15-0.24c0.07,0,0.1,0.11,0.1,0.24
		c0,0.11-0.18,1.24-0.33,1.77c-0.09,0.29-0.12,0.33-0.39,0.45c-0.6,0.25-1.5,0.36-2.47,0.36C30.42,75.54,28.55,75.05,27.33,73.94"/>
	<path class="st0" d="M69.31,73.94c-1.5-1.37-1.91-3.13-1.91-4.7c0-1.28,0.41-2.85,1.78-4.25c1-1.02,2.68-1.74,4.96-1.74
		c0.6,0,1.41,0.09,1.92,0.19c0.57,0.12,1.05,0.2,1.53,0.23c0.16,0.02,0.2,0.08,0.2,0.17c0,0.13-0.05,0.35-0.08,0.91
		c-0.03,0.51-0.03,1.08-0.04,1.31c-0.02,0.23-0.05,0.33-0.14,0.33c-0.11,0-0.12-0.11-0.12-0.33c0-0.61-0.24-0.95-0.63-1.3
		c-0.52-0.47-1.43-0.89-2.74-0.89c-2,0-2.89,0.65-3.42,1.19c-1.1,1.1-1.44,2.48-1.44,4.08c0,2.93,1.67,5.75,5.43,5.75
		c1.13,0,1.81-0.19,2.41-0.83c0.32-0.35,0.51-0.84,0.56-1.11c0.03-0.17,0.06-0.24,0.15-0.24c0.07,0,0.1,0.11,0.1,0.24
		c0,0.11-0.18,1.24-0.33,1.77c-0.09,0.29-0.12,0.33-0.39,0.45c-0.6,0.25-1.49,0.36-2.47,0.36C72.39,75.54,70.52,75.05,69.31,73.94"
		/>
	<path class="st0" d="M114.58,73.95c-1.54-1.36-1.96-3.24-1.96-4.73c0-1.28,0.45-2.88,1.86-4.28c0.95-0.94,2.77-1.68,5.03-1.68
		c0.62,0,1.54,0.09,2.06,0.19c0.58,0.12,1.07,0.2,1.57,0.23c0.17,0.01,0.2,0.08,0.2,0.17c0,0.12-0.05,0.31-0.08,0.88
		c-0.03,0.51-0.03,1.08-0.05,1.31c-0.01,0.24-0.05,0.33-0.14,0.33c-0.11,0-0.12-0.11-0.12-0.33c0-0.61-0.25-0.95-0.64-1.3
		c-0.54-0.48-1.56-0.89-2.9-0.89c-2.06,0-2.97,0.65-3.51,1.18c-1.13,1.1-1.48,2.45-1.48,4.05c0,2.92,1.72,5.78,5.57,5.78
		c1.16,0,1.98-0.23,2.6-0.87c0.32-0.35,0.52-0.84,0.57-1.12c0.03-0.17,0.06-0.23,0.15-0.23c0.08,0,0.11,0.11,0.11,0.23
		c0,0.11-0.18,1.27-0.34,1.8c-0.09,0.29-0.12,0.33-0.4,0.45c-0.62,0.25-1.66,0.4-2.66,0.4C117.71,75.55,115.82,75.06,114.58,73.95"
		/>
	<path class="st0" d="M50.44,73.3c0.06,0.56,0.17,1.44,0.83,1.66c0.45,0.14,0.85,0.14,1,0.14c0.08,0,0.12,0.02,0.12,0.08
		c0,0.1-0.14,0.14-0.32,0.14c-0.34,0-2.37-0.05-2.94-0.1c-0.35-0.03-0.43-0.08-0.43-0.15c0-0.06,0.03-0.09,0.11-0.11
		c0.08-0.02,0.09-0.28,0.06-0.56l-0.77-7.53h-0.05l-3.55,7.59c-0.29,0.63-0.4,0.84-0.6,0.84c-0.18,0-0.31-0.2-0.57-0.72
		c-0.39-0.77-3.48-7.25-3.65-7.68h-0.07l-0.67,6.85c-0.02,0.25-0.02,0.53-0.02,0.8c0,0.24,0.16,0.44,0.4,0.48
		c0.26,0.06,0.49,0.08,0.58,0.08c0.06,0,0.12,0.03,0.12,0.08c0,0.11-0.09,0.14-0.28,0.14c-0.57,0-1.31-0.05-1.43-0.05
		c-0.14,0-0.88,0.05-1.29,0.05c-0.15,0-0.26-0.03-0.26-0.14c0-0.05,0.08-0.08,0.15-0.08c0.12,0,0.23,0,0.46-0.05
		c0.51-0.09,0.56-0.71,0.62-1.31l1.24-10.27c0.04-0.2,0.18-0.32,0.27-0.32c0.1,0,0.19,0.11,0.28,0.27l4.62,9.51l4.35-9.45
		c0.1-0.2,0.22-0.32,0.33-0.32c0.14,0,0.26,0.15,0.29,0.45L50.44,73.3"/>
	<path class="st0" d="M64.65,70.78c0,1.51,0,2.75,0.08,3.4c0.05,0.46,0.14,0.8,0.61,0.86c0.22,0.03,0.56,0.06,0.71,0.06
		c0.1,0,0.13,0.05,0.13,0.09c0,0.08-0.08,0.13-0.25,0.13c-0.86,0-2.06-0.05-2.14-0.05c-0.08,0-1.19,0.05-1.66,0.05
		c-0.17,0-0.25-0.03-0.25-0.13c0-0.05,0.03-0.09,0.13-0.09c0.14,0,0.33-0.03,0.47-0.06c0.31-0.06,0.39-0.41,0.46-0.86
		c0.08-0.66,0.08-1.9,0.08-3.41v-1.57c0-0.06-0.05-0.1-0.09-0.1h-6.21c-0.05,0-0.09,0.02-0.09,0.1v1.57c0,1.51,0,2.75,0.08,3.41
		c0.05,0.46,0.14,0.8,0.61,0.86c0.22,0.03,0.57,0.06,0.71,0.06c0.09,0,0.12,0.05,0.12,0.09c0,0.08-0.08,0.13-0.25,0.13
		c-0.86,0-1.85-0.05-1.92-0.05c-0.08,0-1.41,0.05-1.88,0.05c-0.17,0-0.25-0.03-0.25-0.13c0-0.05,0.03-0.09,0.13-0.09
		c0.14,0,0.33-0.03,0.47-0.06c0.31-0.06,0.39-0.41,0.45-0.86c0.08-0.65,0.08-1.89,0.08-3.41v-2.76c0-2.45,0-2.88-0.03-3.39
		c-0.03-0.53-0.16-0.78-0.67-0.89c-0.13-0.03-0.39-0.05-0.53-0.05c-0.06,0-0.13-0.03-0.13-0.09c0-0.1,0.08-0.13,0.25-0.13
		c0.7,0,2.04,0.05,2.12,0.05c0.08,0,1.06-0.05,1.53-0.05c0.17,0,0.25,0.03,0.25,0.13c0,0.06-0.06,0.09-0.13,0.09
		c-0.11,0-0.2,0.02-0.39,0.05c-0.43,0.08-0.55,0.34-0.58,0.89c-0.03,0.5-0.03,0.94-0.03,3.39v0.32c0,0.08,0.05,0.09,0.09,0.09h6.21
		c0.05,0,0.09-0.01,0.09-0.09v-0.32c0-2.45,0-2.88-0.03-3.39c-0.03-0.53-0.16-0.78-0.68-0.89c-0.13-0.03-0.39-0.05-0.53-0.05
		c-0.06,0-0.13-0.03-0.13-0.09c0-0.1,0.08-0.13,0.25-0.13c0.71,0,1.82,0.05,1.9,0.05c0.08,0,1.28-0.05,1.75-0.05
		c0.17,0,0.25,0.03,0.25,0.13c0,0.06-0.06,0.09-0.13,0.09c-0.11,0-0.2,0.02-0.39,0.05c-0.43,0.08-0.55,0.34-0.58,0.89
		c-0.03,0.5-0.03,0.94-0.03,3.39L64.65,70.78"/>
	<path class="st0" d="M137.48,70.79c0,1.51,0,2.74,0.08,3.4c0.05,0.45,0.14,0.8,0.61,0.86c0.22,0.03,0.57,0.06,0.71,0.05
		c0.09,0,0.12,0.05,0.12,0.1c0,0.08-0.08,0.13-0.25,0.13c-0.86,0-2.06-0.05-2.14-0.05c-0.08,0-1.19,0.05-1.66,0.05
		c-0.17,0-0.25-0.03-0.25-0.13c0-0.05,0.03-0.1,0.12-0.1c0.14,0,0.33-0.03,0.47-0.05c0.32-0.06,0.39-0.41,0.46-0.86
		c0.08-0.66,0.08-1.9,0.08-3.41v-1.59c0-0.06-0.05-0.1-0.09-0.1h-6.63c-0.05,0-0.1,0.02-0.1,0.1v1.59c0,1.51,0,2.75,0.08,3.41
		c0.05,0.45,0.14,0.8,0.61,0.86c0.22,0.03,0.56,0.06,0.71,0.05c0.09,0,0.12,0.05,0.12,0.1c0,0.08-0.08,0.13-0.25,0.13
		c-0.87,0-1.85-0.05-1.93-0.05c-0.08,0-1.41,0.05-1.88,0.05c-0.17,0-0.25-0.03-0.25-0.13c0-0.05,0.03-0.1,0.12-0.1
		c0.14,0,0.33-0.03,0.47-0.05c0.31-0.06,0.39-0.41,0.45-0.86c0.08-0.66,0.08-1.9,0.08-3.42v-2.76c0-2.44,0-2.88-0.03-3.38
		c-0.03-0.54-0.16-0.78-0.68-0.89c-0.12-0.03-0.39-0.05-0.53-0.05c-0.06,0-0.13-0.04-0.13-0.1c0-0.09,0.08-0.13,0.25-0.13
		c0.7,0,2.04,0.05,2.11,0.05c0.08,0,1.07-0.05,1.54-0.05c0.18,0,0.25,0.03,0.25,0.13c0,0.06-0.06,0.1-0.12,0.1
		c-0.11,0-0.21,0.01-0.39,0.05c-0.43,0.08-0.55,0.35-0.58,0.89c-0.04,0.5-0.04,0.94-0.04,3.38v0.33c0,0.08,0.05,0.1,0.1,0.1h6.63
		c0.04,0,0.09-0.02,0.09-0.1v-0.33c0-2.44,0-2.88-0.03-3.38c-0.03-0.54-0.16-0.78-0.68-0.89c-0.13-0.03-0.39-0.05-0.53-0.05
		c-0.06,0-0.13-0.04-0.13-0.1c0-0.09,0.08-0.13,0.25-0.13c0.71,0,1.82,0.05,1.9,0.05c0.08,0,1.28-0.05,1.75-0.05
		c0.17,0,0.25,0.03,0.25,0.13c0,0.06-0.06,0.1-0.12,0.1c-0.11,0-0.21,0.01-0.39,0.05c-0.42,0.08-0.55,0.35-0.58,0.89
		c-0.03,0.5-0.03,0.94-0.03,3.38L137.48,70.79"/>
	<path class="st0" d="M103.46,75.13c-0.24-0.11-0.26-0.17-0.26-0.6c0-0.78,0.07-1.41,0.09-1.66c0.02-0.17,0.05-0.25,0.14-0.25
		c0.1,0,0.12,0.05,0.12,0.17c0,0.14,0,0.36,0.05,0.58c0.26,1.16,1.42,1.6,2.59,1.6c1.69,0,2.38-1.08,2.38-2.09
		c0-1.01-0.46-1.84-1.89-2.83l-0.8-0.56c-1.89-1.32-2.23-2.3-2.23-3.37c0-1.68,1.35-2.86,3.59-2.86c0.68,0,1.2,0.06,1.64,0.15
		c0.34,0.06,0.48,0.08,0.61,0.08c0.14,0,0.17,0.03,0.17,0.11c0,0.08-0.07,0.59-0.07,1.66c0,0.25-0.03,0.36-0.11,0.36
		c-0.1,0-0.12-0.08-0.13-0.2c-0.02-0.19-0.12-0.61-0.23-0.79c-0.1-0.17-0.58-0.83-2.21-0.83c-1.1,0-1.86,0.67-1.86,1.58
		c0,0.89,0.27,1.47,1.92,2.68l0.49,0.34c2.08,1.47,2.57,2.54,2.57,3.79c0,0.64-0.37,1.92-1.58,2.69c-0.76,0.47-1.71,0.66-2.64,0.66
		C104.99,75.55,104.18,75.44,103.46,75.13"/>
	<path class="st0" d="M145.22,70.81c0,2.3,0.06,3.31,0.34,3.59c0.25,0.25,1.37,0.36,2.59,0.36c0.83,0,1.52-0.02,1.9-0.48
		c0.21-0.25,0.36-0.64,0.41-0.94c0.02-0.13,0.05-0.2,0.14-0.2c0.08,0,0.09,0.06,0.09,0.23c0,0.17-0.11,1.11-0.23,1.57
		c-0.11,0.36-0.16,0.42-0.99,0.42c-2.26,0-4.17-0.09-5.08-0.08c-0.14,0-1.24,0.05-1.71,0.04c-0.17,0-0.25-0.03-0.25-0.12
		c0-0.05,0.03-0.1,0.12-0.1c0.14,0,0.33-0.03,0.48-0.06c0.31-0.06,0.39-0.41,0.45-0.86c0.08-0.66,0.08-1.9,0.08-3.41v-2.76
		c0-2.44,0-2.88-0.03-3.38c-0.03-0.54-0.16-0.78-0.68-0.89c-0.13-0.03-0.39-0.05-0.53-0.05c-0.06,0-0.12-0.04-0.12-0.1
		c0-0.09,0.08-0.13,0.25-0.13c0.71,0,1.86,0.05,1.94,0.05c0.08,0,1.39-0.05,1.86-0.05c0.17,0,0.25,0.03,0.25,0.13
		c0,0.06-0.06,0.1-0.12,0.1c-0.11,0-0.33,0.01-0.52,0.05c-0.45,0.08-0.58,0.34-0.61,0.89c-0.03,0.5-0.03,0.94-0.03,3.38
		L145.22,70.81"/>
</g>
</svg>
