<?xml version="1.0" encoding="utf-8"?>
<!-- Generator: Adobe Illustrator 24.2.3, SVG Export Plug-In . SVG Version: 6.00 Build 0)  -->
<svg version="1.1" id="Layer_1" xmlns="http://www.w3.org/2000/svg" xmlns:xlink="http://www.w3.org/1999/xlink" x="0px" y="0px"
	 viewBox="0 0 180 46" style="enable-background:new 0 0 180 46;" xml:space="preserve">
<style type="text/css">
	.st0{fill:#434444;}
</style>
<g>
	<path class="st0" d="M12.67,33.22c-4.54,0-7.19-2.94-7.19-7.54c0-4.6,2.62-7.51,7.16-7.51c4.54,0,7.19,2.94,7.19,7.54
		C19.83,30.31,17.21,33.22,12.67,33.22z M12.67,13.38C4.65,13.38,0,18.16,0,25.71C0,33.26,4.62,38,12.63,38
		c8.01,0,12.67-4.78,12.67-12.33C25.3,18.13,20.68,13.38,12.67,13.38z"/>
	<path class="st0" d="M40.45,37.59V27.05c0-2.45-1.16-3.71-3.13-3.71c-1.97,0-3.23,1.26-3.23,3.71v10.55h-5.17V19.37h5.17v2.58
		c1.19-1.53,2.72-2.92,5.34-2.92c3.91,0,6.19,2.58,6.19,6.77v11.8H40.45z"/>
	<path class="st0" d="M55.54,31.57c0,1.19,0.54,1.77,1.76,1.77c1.01,0,1.91-0.24,2.7-0.65v4.15c-1.09,0.65-2.35,1.05-4.08,1.05
		c-3.16,0-5.31-1.26-5.31-5.48V23.6h-2.18v-4.23h2.18v-4.66h4.92v4.66h4.45v4.23h-4.45V31.57z"/>
	<path class="st0" d="M74.35,31.08c0,1.87-1.68,3.24-4.1,3.24c-1.67,0-2.87-0.82-2.87-2.21v-0.07c0-1.63,1.41-2.52,3.62-2.52
		c1.26,0,2.46,0.23,3.35,0.59V31.08z M71.02,19.16c-3.09,0-5.07,0.58-7.07,1.46l1.2,3.71c1.67-0.61,3.25-1.03,5.22-1.03
		c2.58,0,4.05,1.24,4.05,3.38v0.26c-1.29-0.35-2.81-0.56-4.64-0.56c-4.32,0-7.39,1.9-7.39,6.01v0.07c0,3.6,2.82,5.48,6.26,5.48
		c2.53,0,4.32-0.89,5.64-2.17v1.83h4.87V27.02C79.14,22.09,76.66,19.16,71.02,19.16z"/>
	<path class="st0" d="M93.76,23.67c-3.43,0-5.45,2.03-5.45,6.38v7.54h-5.07V19.37h5.07v3.67c1.05-2.52,2.66-4.15,5.72-4.01v4.65
		H93.76z"/>
	<path class="st0" d="M102.12,19.46l0.09-0.09h-5.17v18.23h5.17V19.37L102.12,19.46z M102.35,12.77v4.59h-5.44v-4.59H102.35
		l-0.09,0.09L102.35,12.77z"/>
	<path class="st0" d="M115.61,33.59c-3.01,0-4.77-1.99-4.77-5.1c0-3.09,1.68-5.07,4.74-5.07c3.03,0,4.78,1.99,4.78,5.09
		C120.36,31.62,118.68,33.59,115.61,33.59z M115.61,19.03c-6.19,0-9.87,3.67-9.87,9.51c0,5.82,3.67,9.46,9.84,9.46
		c6.21,0,9.89-3.67,9.89-9.5C125.46,22.66,121.8,19.03,115.61,19.03z"/>
	<path class="st0" d="M159.73,15.68c0.33,0.39,0.5,0.74,0.69,1.26c0.15,0.42,0.17,0.97,0.05,1.42c-0.27,1.07-1.33,1.86-2.69,2.37
		c0.47-1.57-0.37-2.98-1.43-3.88c-2.09-1.77-4.81-2.85-7.77-2.84c-1.04,0-2.06,0.15-3.03,0.4c0.83,2.96,2.71,5.57,5.68,7.27
		c0.17-0.48,0.39-0.8,0.74-1.22c0.29-0.34,0.76-0.63,1.21-0.76c1.06-0.3,2.27,0.23,3.39,1.14c-1.59,0.38-2.4,1.81-2.64,3.18
		c-0.48,2.7-0.06,5.59,1.42,8.15c0.52,0.9,1.16,1.71,1.86,2.42c2.15-2.2,3.47-5.14,3.46-8.56c-0.5,0.09-0.88,0.06-1.42-0.03
		c-0.44-0.08-0.93-0.34-1.26-0.67c-0.79-0.77-0.94-2.08-0.71-3.51c1.12,1.19,2.77,1.17,4.08,0.7c2.58-0.93,4.87-2.74,6.35-5.31
		c0.52-0.9,0.9-1.86,1.17-2.82C165.9,13.63,162.69,13.96,159.73,15.68z"/>
	<path class="st0" d="M170.47,18.81c-1.39,2.4-3.59,4.68-6.65,6.13c0.46,6.09-2.59,11.06-6.6,13.8c-1.83-1.24-3.44-2.92-4.62-4.97
		c-1.39-2.4-2.26-5.45-1.98-8.82c-5.5-2.65-8.27-7.77-8.64-12.61c1.99-0.96,4.25-1.52,6.61-1.52c2.77,0,5.84,0.76,8.62,2.69l0,0
		c5.04-3.44,10.87-3.29,15.25-1.19C172.29,14.53,171.65,16.76,170.47,18.81z M157.22,0c-15.48,0-22.79,7.3-22.79,22.78
		c0,15.48,7.3,22.79,22.79,22.79c15.48,0,22.78-7.3,22.78-22.79C180,7.3,172.7,0,157.22,0z"/>
</g>
</svg>
