<?xml version="1.0" encoding="utf-8"?>
<!-- Generator: Adobe Illustrator 24.2.3, SVG Export Plug-In . SVG Version: 6.00 Build 0)  -->
<svg version="1.1" id="Layer_1" xmlns="http://www.w3.org/2000/svg" xmlns:xlink="http://www.w3.org/1999/xlink" x="0px" y="0px"
	 viewBox="0 0 180 77" style="enable-background:new 0 0 180 77;" xml:space="preserve">
<style type="text/css">
	.st0{fill-rule:evenodd;clip-rule:evenodd;fill:#FFFFFF;}
</style>
<g>
	<path class="st0" d="M18.75,61.08c-3.06-5.36-6.12-14.82-0.77-26.2c2.77-5.93,8.03-10.33,12.43-12.72
		c-2.49-3.25,0.67-6.98,2.2-8.42c0.19-0.19,0-0.48-0.19-0.38c-6.31,3.06-13.01,10.23-15.97,15.97c-7.65,14.54-1.63,26.68,1.82,31.94
		C18.75,62.03,19.42,62.32,18.75,61.08z"/>
	<path class="st0" d="M18.66,66.53c-10.9-10.52-11.48-28.4-4.49-41.6c3.92-7.36,10.52-13.87,18.17-17.41
		c0.86-0.48,2.58-1.05,4.11-1.53c-1.15-2.3,1.91-4.78,6.6-5.55c0-0.1-0.1-0.19-0.19-0.29c-2.01-0.86-11.29,2.2-13.01,0.86
		c-7.17,4.4-13.68,10.33-17.88,17.88c-9.18,16.35-6.6,36.63,6.41,48.3C19.81,68.54,20.09,67.87,18.66,66.53z"/>
	<path class="st0" d="M8.52,18.23c0.19-0.1,0.29-0.1,0.38,0.1C5.27,24.26,3.16,31.14,3.16,38.6c0,7.36,2.1,14.35,5.74,20.18
		c0.67,1.05,0.38,1.43-0.67,0c-5.36-7.36-8.42-13.96-8.22-24.96c0-2.77,0.38-5.64,0.96-8.03C3.36,27.03,6.7,19.28,8.52,18.23z"/>
	<path class="st0" d="M79.87,73.03c-1.34,0.57-2.68,0.96-3.92,0.96c-1.82,0-3.35-0.57-4.4-1.82c-1.15-1.24-1.72-2.77-1.72-4.69
		c0-0.76,0.1-1.72,0.29-2.77l3.35-18.94h-3.92l0.48-2.01h3.83l1.72-9.47l5.07-1.53l-1.91,11h6.89l-0.38,2.01h-6.88l-3.44,19.61
		c-0.19,1.05-0.29,2.01-0.29,2.87c0,1.05,0.29,1.91,0.67,2.39c0.48,0.57,1.15,0.86,2.1,0.86c0.86,0,1.82-0.29,2.96-0.86L79.87,73.03
		z"/>
	<path class="st0" d="M93.35,73.03c-1.34,0.57-2.68,0.96-3.92,0.96c-1.82,0-3.35-0.57-4.4-1.82c-1.15-1.24-1.72-2.77-1.72-4.69
		c0-0.76,0.1-1.72,0.29-2.77l3.35-18.94h-3.92l0.48-2.01h3.83l1.63-9.47l5.16-1.53l-1.91,11h8.13l-0.38,2.01h-8.13l-3.44,19.61
		c-0.19,1.05-0.29,2.01-0.29,2.87c0,1.05,0.19,1.91,0.67,2.39c0.48,0.57,1.15,0.86,2.1,0.86c0.76,0,1.82-0.29,2.96-0.86L93.35,73.03
		z"/>
	<path class="st0" d="M120.32,73.32l0.29-1.82h-0.48c-1.72-0.1-2.68-0.29-2.97-0.38c-0.38-0.1-0.48-0.48-0.48-1.05
		c0-1.05,0.1-2.39,0.38-3.83l4.02-22.57h-4.88c-0.96-0.19-1.82-0.38-2.49-0.48c-0.77-0.1-1.34-0.1-1.82-0.1
		c-4.3,0-8.32,2.49-12.05,7.56c-3.83,5.07-5.64,10.52-5.64,16.45c0,2.3,0.38,4.02,1.34,5.07c0.86,1.15,2.1,1.72,3.92,1.72
		c2.1,0,4.4-1.15,6.89-3.54c2.49-2.39,4.78-5.55,6.79-9.47l-2.2,12.43H120.32z M101.67,69.88c-0.76,0-1.34-0.29-1.72-0.96
		c-0.48-0.67-0.67-1.63-0.67-2.97c0-2.58,0.48-5.55,1.34-8.8c0.86-3.35,1.91-5.93,3.06-7.94c1.53-2.49,3.44-3.63,5.93-3.63
		c1.05,0,2.1,0.1,3.06,0.38c0.96,0.29,1.91,0.77,2.87,1.34l-1.63,9.47C108.84,65.48,104.73,69.88,101.67,69.88z"/>
	<path class="st0" d="M125.87,73.61c0.1-2.1,0.19-3.63,0.19-4.49c0-8.13-1.15-15.3-3.54-21.52c-0.48-1.44-1.72-2.11-3.73-2.11
		l-0.48-0.1l0.29-1.72h8.03c2.01,6.98,3.35,14.15,3.83,21.61c4.97-9.09,7.94-16.16,8.99-21.33h1.34c2.58,6.98,4.21,14.25,4.69,21.9
		l2.39-3.83c3.73-6.12,5.55-10.61,5.55-13.68c0-1.82-0.48-3.35-1.53-4.69h5.93c0.1,0.57,0.1,1.05,0.1,1.44
		c0,2.39-1.63,6.31-4.97,11.67c-5.64,9.28-9.18,14.82-10.62,16.83h-1.63c0.19-1.82,0.29-3.06,0.29-3.83
		c0-6.03-0.86-11.76-2.58-17.12c-2.49,5.93-5.93,12.43-10.14,19.61c-0.1,0.1-0.38,0.57-0.76,1.34H125.87z"/>
	<path class="st0" d="M179.24,73.32l0.29-1.82h-0.48c-1.72-0.1-2.68-0.29-2.96-0.38c-0.38-0.1-0.48-0.48-0.48-1.05
		c0-1.05,0.1-2.39,0.38-3.83L180,43.67h-4.88c-0.96-0.19-1.82-0.38-2.58-0.48c-0.67-0.1-1.24-0.1-1.72-0.1
		c-4.3,0-8.32,2.49-12.05,7.56c-3.83,5.07-5.64,10.52-5.64,16.45c0,2.3,0.38,4.02,1.34,5.07c0.86,1.15,2.1,1.72,3.92,1.72
		c2.1,0,4.4-1.15,6.89-3.54c2.49-2.39,4.78-5.55,6.79-9.47l-2.2,12.43H179.24z M160.59,69.88c-0.77,0-1.34-0.29-1.82-0.96
		c-0.38-0.67-0.57-1.63-0.57-2.97c0-2.58,0.48-5.55,1.34-8.8c0.86-3.35,1.91-5.93,3.06-7.94c1.53-2.49,3.44-3.63,5.93-3.63
		c1.05,0,2.1,0.1,3.06,0.38c0.96,0.29,1.91,0.77,2.87,1.34l-1.63,9.47C167.76,65.48,163.65,69.88,160.59,69.88z"/>
	<path class="st0" d="M24.97,71.12c13.68,7.56,29.55,0.86,34.53-10.52c4.88-10.9,1.91-25.34-7.84-30.7
		c-3.44-2.01-6.98-2.87-10.33-2.87c-11.48,0-20.75,9.75-20.75,21.71c0,11,7.75,19.99,17.88,21.52c1.44,0.1,1.82,0.57,0,0.38
		c-7.65-0.57-13.96-5.93-16.64-10.42c-2.01-3.44-2.96-7.36-3.16-10.42c-0.48-5.07,0.76-9.95,3.06-14.06
		c6.6-12.15,22-15.78,34.14-8.99c12.15,6.7,16.55,22,9.85,34.24C57.3,76.28,39.7,80.2,24.49,71.69c-3.06-1.72-3.54-2.87-1.24-1.53
		C23.82,70.54,24.4,70.83,24.97,71.12z"/>
</g>
</svg>
