<?xml version="1.0" encoding="utf-8"?>
<!-- Generator: Adobe Illustrator 25.1.0, SVG Export Plug-In . SVG Version: 6.00 Build 0)  -->
<svg version="1.1" id="Logo__x2014__FIXED" xmlns="http://www.w3.org/2000/svg" xmlns:xlink="http://www.w3.org/1999/xlink" x="0px"
	 y="0px" viewBox="0 0 300 300" style="enable-background:new 0 0 300 300;" xml:space="preserve">
<path d="M94.3,272.5c113.2,0,175.1-94.3,175.1-176c0-2.7,0-5.3-0.2-8c12-8.7,22.5-19.6,30.7-32c-11,4.9-22.9,8.2-35.4,9.7
	c12.7-7.7,22.5-19.8,27.1-34.2c-11.9,7.1-25.1,12.2-39.1,15c-11.2-12-27.2-19.5-44.9-19.5c-34,0-61.6,27.7-61.6,61.8
	c0,4.9,0.5,9.6,1.6,14.1c-51.2-2.6-96.5-27.2-126.9-64.6c-5.3,9.1-8.3,19.8-8.3,31.1c0,21.5,10.9,40.4,27.4,51.5
	c-10.1-0.3-19.6-3.1-27.9-7.7c0,0.3,0,0.5,0,0.8c0,30,21.2,55,49.4,60.6c-5.2,1.4-10.6,2.2-16.2,2.2c-4,0-7.8-0.4-11.6-1.1
	c7.8,24.6,30.6,42.4,57.5,43c-21.1,16.6-47.6,26.5-76.4,26.5c-5,0-9.9-0.3-14.7-0.9C27.2,262.3,59.6,272.5,94.3,272.5"/>
</svg>
