<?xml version="1.0" encoding="utf-8"?>
<!-- Generator: Adobe Illustrator 25.1.0, SVG Export Plug-In . SVG Version: 6.00 Build 0)  -->
<svg version="1.1" id="Layer_1" xmlns="http://www.w3.org/2000/svg" xmlns:xlink="http://www.w3.org/1999/xlink" x="0px" y="0px"
	 viewBox="0 0 100 100" style="enable-background:new 0 0 100 100;" xml:space="preserve">
<style type="text/css">
	.st0{fill:#FFFFFF;}
</style>
<g>
	<path class="st0" d="M84.1,100H15.9C7.1,100,0,92.9,0,84.1V15.9C0,7.1,7.1,0,15.9,0h68.2C92.9,0,100,7.1,100,15.9v68.2
		C100,92.9,92.9,100,84.1,100z M91.3,80.4V19.6c0-6-4.9-10.9-10.9-10.9H19.6c-6,0-10.9,4.9-10.9,10.9v60.8c0,6,4.9,10.9,10.9,10.9
		h60.8C86.4,91.3,91.3,86.4,91.3,80.4z"/>
	<g>
		<path class="st0" d="M50,75.8c-14.2,0-25.8-11.6-25.8-25.8S35.8,24.2,50,24.2S75.8,35.8,75.8,50S64.2,75.8,50,75.8z M50,32.9
			c-9.4,0-17.1,7.7-17.1,17.1S40.6,67.1,50,67.1S67.1,59.4,67.1,50S59.4,32.9,50,32.9z"/>
	</g>
	<circle class="st0" cx="77" cy="23.2" r="6.6"/>
</g>
</svg>
