<?xml version="1.0" encoding="utf-8"?>
<!-- Generator: Adobe Illustrator 24.2.3, SVG Export Plug-In . SVG Version: 6.00 Build 0)  -->
<svg version="1.1" id="Layer_1" xmlns="http://www.w3.org/2000/svg" xmlns:xlink="http://www.w3.org/1999/xlink" x="0px" y="0px"
	 viewBox="0 0 180 43" style="enable-background:new 0 0 180 43;" xml:space="preserve">
<style type="text/css">
	.st0{fill:#FFFFFF;}
</style>
<g>
	<path class="st0" d="M35.88,14.38l-0.9-13.79c-0.11-0.34-0.65-0.34-0.66,0c-0.06,2.97-5.31,0.47-7.18,0.05
		C10.93-3.06,0,9.97,0,20.78c0,14.01,9.27,21.63,21.19,21.63c9.49,0,14.29-6.07,15.84-12.63c0.2-0.83-0.73-0.66-0.94,0
		c-2.87,9.16-9.99,11.47-13.52,11.42c-7.67-0.11-14.8-6.29-15.06-20.42C7.17,2.79,27.5-8.98,35.21,14.16
		C35.37,14.65,35.76,14.77,35.88,14.38"/>
	<path class="st0" d="M42.5,16.59c4.19-1.77,15.56-1.21,15.56,3.97V36.5c0,4.37,4.3,5.86,5.52,2.93c0.38-0.39,1.05-0.11,0.72,0.55
		c-0.77,3.09-8.39,3.59-11.04-0.55C38.63,50.09,29.3,29.11,46.8,28.78c5.47-0.83,6.08-3.97,6.08-6.18c0-5.46-2.87-5.95-4.59-5.95
		c-1.82,0-3.3,0.55-4.31,3.37C42.44,25.64,34,20.61,42.5,16.59 M46.25,41.14c3.48,0.44,6.57-2.7,6.57-5.79v-7.51
		C37.97,33.31,42.6,40.92,46.25,41.14"/>
	<path class="st0" d="M72.01,16.04l-7.11,0.94c-0.44,0.11-0.44,0.33,0.38,0.55c1.55,0.06,2.55,1.11,2.55,3.37v16.6
		c0,1.99-2.79,3.73-3.37,3.97c-1.32,0.56,0.66,0.44,0.66,0.44h11.64c0.38,0,1.6,0.11,0.05-0.6c-1.76-0.66-3.69-2.1-3.69-3.81V25.03
		c0-5.24,3.42-8.11,6.79-8.11c3.53,0,6.46,0.77,6.46,8.05V37.5c0,1.82-2.38,3.48-3.65,3.92c-0.83,0.22-1.16,0.49-0.44,0.49H94.7
		c0.65,0.06,0.94-0.17,0.32-0.33c-2.97-1.16-3.36-3.37-3.36-4.09V22.93c0-8.33-8.01-7.23-10.82-7.23c-3.54,0.05-7.29,2.26-7.67,3.25
		C73.07,16.26,72.74,15.98,72.01,16.04"/>
	<path class="st0" d="M142.82,39.88c-1.21,2.09-4.19,2.6-7.89,2.6c-7.01,0-12.75-5.41-12.75-12.81c0-6.56,3.71-13.96,13.14-13.96
		c8.5,0,8.44,5.69,8.44,0.94V8.31c0-4.31-1.71-5.57-3.03-5.96c-1.93-0.66-4.42-0.77-0.44-0.77l7.39-0.16
		c-0.44,0.11,0.5,0.11,0.5,0.77v32.56c0,2.26,0.84,5.74,4.48,6.73c0.32,0.06,0.71,0.28,0.32,0.39l-8.06,0.88
		c-1.16,0.12-1.66-0.44-2.14-2.7 M135.65,41.14c4.39,0,7.34-1.7,7.34-11.97c0-9.77-2.95-12.14-7.34-12.14
		c-4.4,0-7.97,5.7-7.97,12.25S131.25,41.14,135.65,41.14"/>
	<path class="st0" d="M100.77,16.56c4.2-1.76,15.56-1.21,15.56,3.98v15.95c0,4.36,4.31,5.85,5.52,2.92c0.39-0.38,1.04-0.1,0.71,0.55
		c-0.77,3.1-8.38,3.59-11.03-0.55C96.9,50.07,87.58,29.1,105.07,28.76c5.47-0.82,6.07-3.96,6.07-6.18c0-5.46-2.87-5.96-4.58-5.96
		c-1.82,0-3.31,0.55-4.31,3.37C100.72,25.61,92.27,20.59,100.77,16.56 M104.52,41.12c3.48,0.44,6.57-2.71,6.57-5.8v-7.5
		C96.25,33.29,100.89,40.9,104.52,41.12"/>
	<path class="st0" d="M158.11,16.62c4.19-1.76,15.56-1.21,15.56,3.97v15.95c0,4.36,4.31,5.86,5.52,2.93
		c0.38-0.39,1.04-0.12,0.71,0.55c-0.77,3.09-8.39,3.59-11.04-0.55c-14.62,10.65-23.95-10.32-6.45-10.65
		c5.47-0.83,6.07-3.98,6.07-6.19c0-5.46-2.87-5.96-4.58-5.96c-1.82,0-3.31,0.55-4.31,3.36C158.05,25.67,149.62,20.64,158.11,16.62
		 M161.87,41.17c3.48,0.44,6.57-2.7,6.57-5.79v-7.51C153.59,33.34,158.22,40.95,161.87,41.17"/>
	<rect x="151.65" y="1.41" class="st0" width="6.07" height="12.36"/>
	<rect x="171.2" y="1.41" class="st0" width="6.06" height="12.36"/>
	<path class="st0" d="M163.62,3.98l0.87-1.77l0.86,1.7c0.1,0.18,0.19,0.17,0.36,0.08l0.74-0.37L165.97,6
		c-0.11,0.46,0.17,0.6,0.45,0.28l1.06-1.13l0.27,0.64c0.1,0.19,0.24,0.17,0.43,0.13l1.08-0.23l-0.36,1.38l-0.01,0.03
		c-0.04,0.18-0.12,0.33,0.07,0.42l0.4,0.19l-2.24,1.9c-0.24,0.24-0.16,0.31-0.07,0.58l0.21,0.63l-2.1-0.38
		c-0.26-0.06-0.44-0.06-0.45,0.15l0.09,2.4h-0.64l0.08-2.4c0-0.24-0.17-0.23-0.6-0.14l-1.94,0.37l0.25-0.63
		c0.09-0.25,0.11-0.41-0.08-0.58l-2.29-1.87L160,7.49c0.12-0.09,0.13-0.19,0.07-0.4l-0.43-1.4l1.1,0.24c0.31,0.07,0.4,0,0.47-0.17
		l0.31-0.63l1.09,1.24c0.2,0.23,0.47,0.08,0.38-0.25l-0.52-2.58L163.29,4c0.12,0.07,0.26,0.09,0.34-0.05L163.62,3.98z"/>
</g>
</svg>
