<?xml version="1.0" encoding="utf-8"?>
<!-- Generator: Adobe Illustrator 24.2.3, SVG Export Plug-In . SVG Version: 6.00 Build 0)  -->
<svg version="1.1" id="Layer_1" xmlns="http://www.w3.org/2000/svg" xmlns:xlink="http://www.w3.org/1999/xlink" x="0px" y="0px"
	 viewBox="0 0 600 142" style="enable-background:new 0 0 600 142;" xml:space="preserve">
<style type="text/css">
	.st0{fill:#434444;}
	.st1{fill:#2E9E46;}
	.st2{fill:#F7921E;}
	.st3{fill:#E6B711;}
</style>
<g>
	<polygon class="st0" points="259.12,41.69 220.13,95.78 181.98,41.69 181.88,41.69 181.88,119.95 196.19,119.95 196.19,86.29 
		219.79,118.93 219.99,118.93 244.51,84.07 244.51,119.95 259.33,119.95 259.33,41.69 	"/>
	<path class="st0" d="M289.47,82.45c-0.03,3.2,0.58,6.38,1.79,9.35c1.16,2.85,2.86,5.45,5.01,7.66c4.36,4.54,10.41,7.08,16.7,7
		c6.13,0.06,12-2.48,16.15-7c4.26-4.64,6.59-10.72,6.54-17.01c0.06-6.38-2.33-12.55-6.69-17.21c-2.06-2.2-4.54-3.96-7.31-5.16
		c-5.81-2.45-12.37-2.45-18.19,0c-2.77,1.21-5.27,2.97-7.36,5.16c-2.12,2.23-3.79,4.85-4.9,7.71
		C290.03,75.98,289.44,79.21,289.47,82.45L289.47,82.45z M274.14,82.45c-0.02-5.05,0.98-10.06,2.96-14.71
		c1.94-4.58,4.74-8.76,8.23-12.31c3.49-3.57,7.64-6.43,12.21-8.43c9.49-4.09,20.24-4.09,29.73,0c4.59,2.02,8.77,4.88,12.31,8.43
		c3.55,3.54,6.39,7.71,8.38,12.31c2.01,4.64,3.04,9.65,3.01,14.71c0.04,5.13-0.99,10.21-3.01,14.92c-1.97,4.58-4.82,8.73-8.38,12.21
		c-3.55,3.49-7.73,6.29-12.31,8.23c-9.52,3.95-20.22,3.95-29.73,0c-9.21-3.9-16.54-11.23-20.44-20.44
		C275.11,92.65,274.1,87.58,274.14,82.45L274.14,82.45z"/>
	<path class="st0" d="M402.37,62.94c-2.8-1.54-5.72-2.84-8.74-3.88c-2.67-0.97-5.49-1.49-8.33-1.53c-2.66-0.15-5.3,0.53-7.56,1.94
		c-1.86,1.34-2.9,3.54-2.76,5.82c0.01,1.8,0.77,3.52,2.09,4.75c1.59,1.53,3.42,2.79,5.42,3.73c2.25,1.1,4.55,2.09,6.9,2.96
		c2.22,0.84,4.39,1.81,6.49,2.91c2.12,1.11,4.07,2.52,5.77,4.19c1.77,1.78,3.16,3.9,4.09,6.23c1.1,2.92,1.62,6.03,1.53,9.14
		c0.02,3.75-1.01,7.43-2.96,10.62c-2.11,3.39-5.11,6.13-8.68,7.92c-4.38,2.14-9.22,3.17-14.1,3.01c-6-0.02-11.94-1.22-17.47-3.53
		c-2.91-1.22-5.69-2.74-8.28-4.55l6.54-11.54c1.81,1.32,3.75,2.47,5.77,3.42c2.01,0.97,4.12,1.74,6.28,2.3
		c1.9,0.52,3.86,0.79,5.82,0.82c1.81-0.01,3.62-0.26,5.36-0.77c1.7-0.45,3.26-1.35,4.5-2.6c1.25-1.39,1.9-3.23,1.79-5.1
		c0-1.49-0.52-2.94-1.48-4.09c-1.13-1.34-2.47-2.48-3.99-3.37c-1.74-1.05-3.56-1.94-5.47-2.66c-2.32-0.89-4.7-1.91-7.15-3.07
		c-2.45-1.16-4.76-2.58-6.9-4.24c-4.77-3.64-7.46-9.38-7.2-15.38c-0.1-3.98,0.91-7.9,2.91-11.34c1.99-3.25,4.84-5.88,8.23-7.61
		c3.8-1.94,7.99-3.01,12.26-3.12c6.06,0,10.98,0.72,14.76,2.15c3.57,1.32,6.97,3.03,10.16,5.1L402.37,62.94z"/>
	<path class="st0" d="M439.23,92.77l7.63-18.33l7.22,18.33H439.23z M464.8,119.95h17.16l-33.92-78.16h-0.82l-33.92,78.16h14.61
		l6.12-14.71H459L464.8,119.95z"/>
	<rect x="492.89" y="44.75" class="st0" width="14.81" height="75.2"/>
	<path class="st0" d="M548.52,104.54c-2.79-1.24-5.33-2.99-7.47-5.17c-2.12-2.22-3.82-4.81-5-7.64c-1.18-2.95-1.77-6.1-1.74-9.27
		c-0.02-3.15,0.55-6.28,1.69-9.22c1.13-2.85,2.81-5.45,4.95-7.64c2.09-2.18,4.59-3.92,7.36-5.11c2.85-1.26,5.93-1.89,9.05-1.86
		c6.2-0.05,12.14,2.47,16.41,6.97c2.1,2.21,3.76,4.81,4.89,7.64c1.23,2.92,1.84,6.05,1.8,9.22c0.04,3.19-0.56,6.36-1.74,9.33
		c-1.09,2.83-2.71,5.42-4.78,7.64c-2.02,2.18-4.47,3.92-7.19,5.11c-2.82,1.23-5.86,1.84-8.94,1.8
		C554.61,106.39,551.45,105.78,548.52,104.54L548.52,104.54z M587.36,106.22c2.24-2.67,4.06-5.66,5.39-8.88
		c4.05-9.46,4.05-20.16,0-29.62c-1.97-4.6-4.82-8.78-8.38-12.31c-3.55-3.55-7.72-6.4-12.31-8.43c-4.66-2.03-9.69-3.06-14.78-3.03
		c-5.14-0.04-10.23,1-14.95,3.03c-4.55,2.03-8.69,4.88-12.2,8.42c-3.49,3.55-6.27,7.72-8.21,12.31c-3.97,9.47-3.97,20.14,0,29.62
		c1.91,4.58,4.69,8.74,8.21,12.25c3.5,3.49,7.64,6.28,12.19,8.21c4.73,2,9.82,3.01,14.95,2.98H600v-14.56H587.36z"/>
	<rect x="472.68" y="11.54" class="st0" width="18.85" height="18.85"/>
	<rect x="510.09" y="11.54" class="st0" width="18.85" height="18.85"/>
	<rect x="0" class="st1" width="44.41" height="30.87"/>
	<rect x="90.51" class="st2" width="63.33" height="30.87"/>
	<rect x="53.86" y="0.01" class="st0" width="26.42" height="64.01"/>
	<rect x="53.86" y="74.94" class="st3" width="26.42" height="66.09"/>
	<rect x="90.51" y="41.72" class="st1" width="63.24" height="56.06"/>
	<rect x="0" y="41.72" class="st0" width="44.41" height="56.06"/>
	<rect x="90.51" y="108.81" class="st0" width="63.36" height="32.27"/>
	<rect x="0" y="108.81" class="st1" width="44.41" height="32.27"/>
</g>
</svg>
