<?xml version="1.0" encoding="utf-8"?>
<!-- Generator: Adobe Illustrator 25.1.0, SVG Export Plug-In . SVG Version: 6.00 Build 0)  -->
<svg version="1.1" id="Layer_1" xmlns="http://www.w3.org/2000/svg" xmlns:xlink="http://www.w3.org/1999/xlink" x="0px" y="0px"
	 viewBox="0 0 100 23" style="enable-background:new 0 0 100 23;" xml:space="preserve">
<style type="text/css">
	.st0{fill:#FFFFFF;}
</style>
<g>
	<path id="Path_186" class="st0" d="M43.2,6.8l-6.5,8.8l-6.4-8.8h0v12.8h2.4v-5.5l3.9,5.3h0l4.1-5.7v5.8h2.5L43.2,6.8L43.2,6.8z"/>
	<path id="Path_187" class="st0" d="M45.7,13.4c0-0.8,0.2-1.6,0.5-2.4c0.3-0.7,0.8-1.4,1.4-2c0.6-0.6,1.3-1,2-1.4
		c1.6-0.7,3.4-0.7,5,0C55.3,8,56,8.5,56.6,9c0.6,0.6,1.1,1.3,1.4,2c0.3,0.8,0.5,1.6,0.5,2.4c0,0.8-0.2,1.7-0.5,2.4
		c-0.3,0.7-0.8,1.4-1.4,2c-0.6,0.6-1.3,1-2.1,1.3c-3.2,1.3-7-0.2-8.4-3.3c0,0,0,0,0,0C45.9,15.1,45.7,14.3,45.7,13.4L45.7,13.4z
		 M48.2,13.4c0,0.5,0.1,1,0.3,1.5c0.2,0.5,0.5,0.9,0.8,1.2c0.7,0.7,1.7,1.2,2.8,1.1c1,0,2-0.4,2.7-1.1c1.5-1.6,1.5-4,0-5.6
		c-0.3-0.4-0.8-0.6-1.2-0.8c-1-0.4-2.1-0.4-3,0c-0.5,0.2-0.9,0.5-1.2,0.8c-0.4,0.4-0.6,0.8-0.8,1.3C48.3,12.4,48.2,12.9,48.2,13.4
		L48.2,13.4z"/>
	<path id="Path_188" class="st0" d="M67.1,10.3c-0.5-0.3-1-0.5-1.5-0.6c-0.4-0.2-0.9-0.2-1.4-0.2c-0.4,0-0.9,0.1-1.3,0.3
		c-0.3,0.2-0.5,0.6-0.5,0.9c0,0.3,0.1,0.6,0.3,0.8c0.3,0.2,0.6,0.5,0.9,0.6c0.4,0.2,0.8,0.3,1.1,0.5c0.4,0.1,0.7,0.3,1.1,0.5
		c0.4,0.2,0.7,0.4,1,0.7c0.3,0.3,0.5,0.6,0.7,1c0.2,0.5,0.3,1,0.3,1.5c0,0.6-0.2,1.2-0.5,1.7c-0.4,0.6-0.9,1-1.4,1.3
		c-0.7,0.3-1.5,0.5-2.3,0.5c-1,0-2-0.2-2.9-0.6c-0.5-0.2-0.9-0.4-1.4-0.7l1.1-1.9c0.3,0.2,0.6,0.4,1,0.6c0.3,0.2,0.7,0.3,1,0.4
		c0.3,0.1,0.6,0.1,1,0.1c0.3,0,0.6,0,0.9-0.1c0.3-0.1,0.5-0.2,0.7-0.4c0.2-0.2,0.3-0.5,0.3-0.8c0-0.2-0.1-0.5-0.2-0.7
		c-0.2-0.2-0.4-0.4-0.7-0.5c-0.3-0.2-0.6-0.3-0.9-0.4c-0.4-0.1-0.8-0.3-1.2-0.5c-0.4-0.2-0.8-0.4-1.1-0.7c-0.8-0.6-1.2-1.5-1.2-2.5
		c0-0.6,0.2-1.3,0.5-1.8c0.3-0.5,0.8-1,1.4-1.2c0.6-0.3,1.3-0.5,2-0.5c0.8,0,1.7,0.1,2.5,0.4c0.6,0.2,1.2,0.5,1.7,0.8L67.1,10.3z"/>
	<path id="Path_189" class="st0" d="M77.5,19.6h2.9L74.7,6.8h-0.1l-5.7,12.7h2.4l1-2.4h4.2L77.5,19.6z M73.2,15.1l1.3-3l1.2,3H73.2z
		"/>
	<path id="Path_190" class="st0" d="M82.1,7.3h2.5v12.3h-2.5V7.3z"/>
	<path id="Path_191" class="st0" d="M97.9,17.3c0.4-0.4,0.7-0.9,0.9-1.4c0.7-1.5,0.7-3.3,0-4.8c-0.3-0.8-0.8-1.4-1.4-2
		c-0.6-0.6-1.3-1-2.1-1.4c-0.8-0.3-1.6-0.5-2.5-0.5c-0.9,0-1.7,0.2-2.5,0.5c-0.8,0.3-1.4,0.8-2,1.4c-0.6,0.6-1,1.3-1.4,2
		c-0.7,1.5-0.7,3.3,0,4.8c0.3,0.7,0.8,1.4,1.4,2c0.6,0.6,1.3,1,2,1.3c0.8,0.3,1.6,0.5,2.5,0.5h7.1v-2.4H97.9z M91.4,17
		c-0.5-0.2-0.9-0.5-1.2-0.8c-0.4-0.4-0.6-0.8-0.8-1.2c-0.2-0.5-0.3-1-0.3-1.5c0-0.5,0.1-1,0.3-1.5c0.2-0.5,0.5-0.9,0.8-1.2
		c0.3-0.4,0.8-0.6,1.2-0.8c0.5-0.2,1-0.3,1.5-0.3c1,0,2,0.4,2.7,1.1c0.4,0.4,0.6,0.8,0.8,1.2c0.2,0.5,0.3,1,0.3,1.5
		c0,0.5-0.1,1-0.3,1.5c-0.2,0.5-0.5,0.9-0.8,1.2c-0.3,0.4-0.7,0.6-1.2,0.8c-0.5,0.2-1,0.3-1.5,0.3C92.4,17.3,91.9,17.2,91.4,17
		L91.4,17z"/>
	<rect id="Rectangle_245" x="78.8" y="1.9" class="st0" width="3.1" height="3.1"/>
	<rect id="Rectangle_246" x="85" y="1.9" class="st0" width="3.1" height="3.1"/>
	<rect id="Rectangle_247" class="st0" width="7.4" height="5"/>
	<rect id="Rectangle_248" x="15.1" class="st0" width="10.6" height="5"/>
	<rect id="Rectangle_249" x="9" y="0" class="st0" width="4.4" height="10.4"/>
	<rect id="Rectangle_250" x="9" y="12.2" class="st0" width="4.4" height="10.8"/>
	<rect id="Rectangle_251" x="15.1" y="6.8" class="st0" width="10.5" height="9.1"/>
	<rect id="Rectangle_252" y="6.8" class="st0" width="7.4" height="9.1"/>
	<rect id="Rectangle_253" x="15.1" y="17.7" class="st0" width="10.6" height="5.3"/>
	<rect id="Rectangle_254" y="17.7" class="st0" width="7.4" height="5.3"/>
</g>
</svg>
