<?xml version="1.0" encoding="utf-8"?>
<!-- Generator: Adobe Illustrator 24.2.3, SVG Export Plug-In . SVG Version: 6.00 Build 0)  -->
<svg version="1.1" id="Layer_1" xmlns="http://www.w3.org/2000/svg" xmlns:xlink="http://www.w3.org/1999/xlink" x="0px" y="0px"
	 viewBox="0 0 200 160" style="enable-background:new 0 0 200 160;" xml:space="preserve">
<style type="text/css">
	.st0{fill:#FFFFFF;}
</style>
<g>
	<polygon class="st0" points="36.95,122.31 18.3,148.09 0.05,122.31 0,122.31 0,159.61 6.84,159.61 6.84,143.57 18.13,159.12 
		18.23,159.12 29.96,142.51 29.96,159.61 37.04,159.61 37.04,122.31 	"/>
	<path class="st0" d="M51.46,141.74c0,1.59,0.29,3.07,0.85,4.45c0.57,1.38,1.37,2.6,2.4,3.65c1.03,1.06,2.22,1.88,3.57,2.46
		c1.35,0.58,2.83,0.88,4.42,0.88c1.53,0,2.96-0.29,4.28-0.88c1.32-0.58,2.47-1.4,3.45-2.46c0.98-1.05,1.74-2.27,2.3-3.65
		c0.55-1.38,0.83-2.86,0.83-4.45c0-1.62-0.29-3.13-0.85-4.53c-0.57-1.39-1.35-2.62-2.35-3.68c-0.99-1.05-2.16-1.87-3.49-2.46
		c-1.34-0.58-2.78-0.88-4.35-0.88c-1.56,0-3.01,0.29-4.35,0.88c-1.34,0.59-2.51,1.41-3.52,2.46c-1.01,1.05-1.79,2.28-2.35,3.68
		C51.74,138.6,51.46,140.11,51.46,141.74z M44.13,141.74c0-2.47,0.47-4.8,1.42-7.01c0.94-2.21,2.26-4.16,3.93-5.87
		c1.68-1.7,3.62-3.04,5.84-4.02c2.22-0.97,4.59-1.46,7.14-1.46c2.51,0,4.87,0.49,7.09,1.46c2.22,0.97,4.18,2.31,5.89,4.02
		c1.71,1.7,3.05,3.66,4.01,5.87c0.96,2.21,1.44,4.55,1.44,7.01c0,2.53-0.48,4.9-1.44,7.11c-0.96,2.21-2.3,4.15-4.01,5.82
		c-1.71,1.67-3.67,2.98-5.89,3.92c-2.22,0.94-4.58,1.41-7.09,1.41c-2.54,0-4.92-0.47-7.14-1.41c-2.22-0.94-4.16-2.25-5.84-3.92
		c-1.68-1.67-2.99-3.61-3.93-5.82C44.6,146.64,44.13,144.27,44.13,141.74z"/>
	<path class="st0" d="M105.47,132.44c-1.37-0.75-2.76-1.36-4.18-1.85c-1.42-0.49-2.74-0.73-3.98-0.73c-1.53,0-2.74,0.31-3.62,0.93
		c-0.88,0.62-1.32,1.54-1.32,2.77c0,0.85,0.33,1.6,1,2.26c0.67,0.67,1.53,1.26,2.59,1.78c1.06,0.52,2.16,0.99,3.3,1.41
		c1.04,0.39,2.08,0.85,3.1,1.39c1.03,0.54,1.95,1.2,2.76,2c0.81,0.8,1.47,1.78,1.95,2.97c0.49,1.19,0.73,2.64,0.73,4.36
		c0,1.82-0.47,3.51-1.42,5.06c-0.95,1.56-2.33,2.82-4.16,3.77c-1.82,0.96-4.07,1.44-6.74,1.44c-1.37,0-2.76-0.14-4.18-0.41
		c-1.42-0.28-2.81-0.7-4.18-1.27c-1.37-0.57-2.69-1.29-3.96-2.17l3.13-5.5c0.85,0.62,1.77,1.16,2.76,1.63
		c0.99,0.47,1.99,0.84,3.01,1.1c1.01,0.26,1.94,0.39,2.79,0.39c0.85,0,1.7-0.12,2.56-0.36c0.86-0.24,1.58-0.66,2.15-1.24
		c0.57-0.58,0.85-1.4,0.85-2.44c0-0.71-0.24-1.36-0.71-1.95c-0.47-0.58-1.11-1.12-1.91-1.61c-0.8-0.49-1.67-0.91-2.61-1.27
		c-1.11-0.42-2.25-0.91-3.42-1.46c-1.17-0.55-2.27-1.23-3.3-2.02c-1.03-0.79-1.86-1.78-2.49-2.97c-0.63-1.18-0.95-2.64-0.95-4.36
		c0-2.08,0.46-3.88,1.39-5.4c0.93-1.53,2.24-2.73,3.93-3.63c1.69-0.89,3.65-1.39,5.86-1.48c2.9,0,5.25,0.34,7.06,1.02
		c1.81,0.68,3.43,1.49,4.86,2.43L105.47,132.44z"/>
	<path class="st0" d="M123.1,146.65l3.65-8.74l3.46,8.74H123.1z M135.33,159.61h8.21l-16.22-37.25h-0.39l-16.23,37.25h6.99
		l2.93-7.01h11.94L135.33,159.61z"/>
	<rect x="148.76" y="123.77" class="st0" width="7.09" height="35.84"/>
	<path class="st0" d="M175.38,152.26c-1.34-0.59-2.53-1.42-3.58-2.46c-1.02-1.04-1.8-2.28-2.39-3.64c-0.56-1.39-0.83-2.87-0.83-4.42
		c0-1.55,0.27-3.03,0.81-4.39c0.56-1.39,1.34-2.6,2.36-3.64c1-1.04,2.18-1.85,3.52-2.44c1.32-0.59,2.77-0.88,4.33-0.88
		c1.59,0,3.01,0.29,4.36,0.88c1.34,0.59,2.5,1.39,3.49,2.44c1,1.05,1.77,2.25,2.34,3.64c0.59,1.37,0.86,2.84,0.86,4.39
		c0,1.58-0.27,3.08-0.83,4.45c-0.54,1.39-1.32,2.6-2.29,3.64c-0.97,1.05-2.12,1.85-3.44,2.44c-1.32,0.59-2.74,0.86-4.28,0.86
		C178.2,153.12,176.72,152.85,175.38,152.26z M193.95,153.06c1.08-1.29,1.94-2.68,2.58-4.23c0.97-2.2,1.45-4.55,1.45-7.1
		c0-2.46-0.48-4.79-1.45-7.02c-0.94-2.2-2.29-4.15-4.01-5.86c-1.69-1.69-3.66-3.03-5.89-4.02c-2.2-0.96-4.57-1.45-7.07-1.45
		c-2.55,0-4.92,0.48-7.15,1.45c-2.2,0.99-4.17,2.33-5.83,4.02c-1.69,1.71-2.98,3.67-3.92,5.86c-0.97,2.22-1.42,4.55-1.42,7.02
		c0,2.54,0.46,4.9,1.42,7.1c0.94,2.22,2.23,4.15,3.92,5.84c1.67,1.66,3.63,2.97,5.83,3.91c2.23,0.94,4.6,1.42,7.15,1.42H200v-6.94
		H193.95z"/>
	<rect x="139.1" y="107.94" class="st0" width="9.01" height="8.98"/>
	<rect x="156.99" y="107.94" class="st0" width="9.01" height="8.98"/>
	<rect class="st0" width="36.92" height="25.57"/>
	<rect x="75.25" class="st0" width="52.66" height="25.57"/>
	<rect x="44.78" y="0.01" class="st0" width="21.97" height="53.02"/>
	<rect x="44.78" y="62.07" class="st0" width="21.97" height="54.75"/>
	<rect x="75.25" y="34.56" class="st0" width="52.58" height="46.44"/>
	<rect y="34.56" class="st0" width="36.92" height="46.44"/>
	<rect x="75.25" y="90.14" class="st0" width="52.68" height="26.73"/>
	<rect y="90.14" class="st0" width="36.92" height="26.73"/>
</g>
</svg>
