<?xml version="1.0" encoding="utf-8"?>
<!-- Generator: Adobe Illustrator 24.3.0, SVG Export Plug-In . SVG Version: 6.00 Build 0)  -->
<svg version="1.1" id="Layer_1" xmlns="http://www.w3.org/2000/svg" xmlns:xlink="http://www.w3.org/1999/xlink" x="0px" y="0px"
	 viewBox="0 0 50 50" style="enable-background:new 0 0 50 50;" xml:space="preserve">
<g>
	<path id="Share_Icon" d="M42.8,35.6c-2,0-3.9,0.8-5.3,2.3L14.2,26.3c0.2-0.8,0.2-1.7,0-2.6l23.3-11.6c2.7,2.9,7.2,3.2,10.1,0.5
		c2.9-2.7,3.1-7.3,0.5-10.2C45.5-0.6,40.9-0.8,38,1.9c-1.8,1.7-2.7,4.2-2.2,6.6L12.4,20.1C9.8,17.2,5.2,17,2.3,19.7
		s-3.1,7.2-0.5,10.2S9.1,33,12,30.3c0.2-0.1,0.3-0.3,0.5-0.5l23.3,11.6c-0.7,3.9,1.9,7.7,5.8,8.4c3.9,0.7,7.6-1.9,8.3-5.8
		c0.7-3.9-1.9-7.7-5.8-8.4C43.7,35.6,43.2,35.6,42.8,35.6L42.8,35.6z"/>
</g>
</svg>
